<svg id="Layer_1" data-name="Layer 1" xmlns="http://www.w3.org/2000/svg" viewBox="0 0 64 16"><defs><style>.cls-1{fill:#fff;}.cls-2{fill:#6c7079;}</style></defs><title>cd-icons</title><polygon class="cls-1" points="5 11 0 6 0.9 5 5 9.1 9.1 5 10 6 5 11"/><path class="cls-2" d="M31,3H24.4L21.7.3A.9.9,0,0,0,21,0H17a.9.9,0,0,0-1,1V15a.9.9,0,0,0,1,1H31a.9.9,0,0,0,1-1V4A.9.9,0,0,0,31,3Z"/><path class="cls-2" d="M47.8,7.4A1.2,1.2,0,0,0,47,7H36a.9.9,0,0,0-.9.6l-3,7c-.2.6,0,1.4.9,1.4H44a.9.9,0,0,0,.9-.6l3-7A.9.9,0,0,0,47.8,7.4Z"/><path class="cls-2" d="M33.2,6.8A3.1,3.1,0,0,1,36,5h9V3a.9.9,0,0,0-1-1H38.4L36.7.3A.9.9,0,0,0,36,0H33a.9.9,0,0,0-1,1V9.7Z"/><path class="cls-2" d="M63,0H49a.9.9,0,0,0-1,1V15a.9.9,0,0,0,1,1H63a.9.9,0,0,0,1-1V1A.9.9,0,0,0,63,0ZM54,4a.9.9,0,0,1,1,1,1,1,0,0,1-2,0A.9.9,0,0,1,54,4Zm-3,8,2-4,2,2,3-4,3,6Z"/></svg>